<?xml version="1.0" standalone="no"?>
<!DOCTYPE svg PUBLIC "-//W3C//DTD SVG 20010904//EN"
 "http://www.w3.org/TR/2001/REC-SVG-20010904/DTD/svg10.dtd">
<svg version="1.0" xmlns="http://www.w3.org/2000/svg"
 width="24.000000pt" height="24.000000pt" viewBox="0 0 24.000000 24.000000"
 preserveAspectRatio="xMidYMid meet">

<g transform="translate(0.000000,24.000000) scale(0.100000,-0.100000)"
fill="#000000" stroke="none">
<path d="M55 230 c-30 -12 -48 -37 -42 -60 3 -11 1 -23 -4 -26 -5 -3 -9 -25
-9 -49 0 -36 5 -48 31 -69 25 -21 41 -26 85 -26 66 0 89 11 109 50 34 65 9
151 -50 176 -52 21 -60 17 -24 -13 37 -31 58 -75 51 -108 -6 -34 -56 -77 -88
-77 -46 0 -72 55 -39 82 9 7 13 15 10 18 -8 8 -45 -30 -45 -47 -1 -13 -3 -13
-11 3 -9 15 -6 23 20 46 17 16 31 38 31 50 0 12 5 30 10 41 12 21 1 24 -35 9z"/>
</g>
</svg>
