<svg width="1207.8875px" height="184.4px" xmlns="http://www.w3.org/2000/svg" viewBox="-353.94375 -17.200000000000003 1207.8875 184.4" style="background: rgba(0, 0, 0, 0);" preserveAspectRatio="xMidYMid"><defs><filter id="editing-extrude-glow"><feFlood flood-color="none" result="flood-1"></feFlood><feMorphology operator="erode" radius="1" in="SourceAlpha" result="erode"></feMorphology><feComposite operator="in" in="flood-1" in2="erode" result="comp1"></feComposite><feConvolveMatrix order="3,3" divisor="1" in="comp1" result="convolve" kernelMatrix="0 0 0 1 1 1 0 0 0"></feConvolveMatrix><feOffset dx="-3" dy="0" in="convolve" result="extrude"></feOffset><feComposite operator="in" in="flood-1" in2="extrude" result="comp-extrude"></feComposite><feFlood flood-color="none" result="flood-2"></feFlood><feComposite operator="in" in="flood-2" in2="SourceAlpha" result="comp2"></feComposite><feMorphology operator="dilate" radius="1" in="comp2" result="dilate"></feMorphology><feOffset dx="-4.5" dy="0" in="dilate" result="offset"></feOffset><feGaussianBlur in="offset" stdDeviation="5.8" result="blur"></feGaussianBlur><feComponentTransfer in="blur" result="shadow"><feFuncA type="linear" slope="0.8" intercept="-0.2"></feFuncA></feComponentTransfer><feMerge><feMergeNode in="shadow"></feMergeNode><feMergeNode in="comp-extrude"></feMergeNode><feMergeNode in="SourceGraphic"></feMergeNode></feMerge></filter></defs><g filter="url(#editing-extrude-glow)"><g transform="translate(-186.7450075149536, 123.36000156402588)"><path d="M10.09-50.65L10.09-50.65L10.09-50.65Q6.55-53.35 6.55-59.12L6.55-59.12L6.55-59.12Q6.55-64.90 10.35-67.91L10.35-67.91L10.35-67.91Q14.14-70.93 20.70-70.93L20.70-70.93L20.70-70.93Q24.86-70.93 34.74-69.47L34.74-69.47L41.81-68.43L41.81-68.43Q45.34-68.02 49.04-68.02L49.04-68.02L49.04-68.02Q52.73-68.02 55.22-69.58L55.22-69.58L55.22-69.58Q58.97-66.25 58.97-61.46L58.97-61.46L58.97-61.46Q58.97-56.68 54.70-53.25L54.70-53.25L54.70-53.25Q50.34-49.61 44.72-49.61L44.72-49.61L44.72-49.61Q42.02-49.61 37.65-50.34L37.65-50.34L37.65-50.34Q32.55-34.32 32.55-23.19L32.55-23.19L32.55-23.19Q32.55-12.06 38.17-6.24L38.17-6.24L38.17-6.24Q35.57-1.56 31.72 0.26L31.72 0.26L31.72 0.26Q27.87 2.08 22.10 2.08L22.10 2.08L22.10 2.08Q16.33 2.08 12.74-1.09L12.74-1.09L12.74-1.09Q9.15-4.26 9.15-10.82L9.15-10.82L9.15-10.82Q9.15-18.41 13.31-30.89L13.31-30.89L13.31-30.89Q17.47-43.26 23.71-52.73L23.71-52.73L23.71-52.73Q20.70-53.04 17.58-53.04L17.58-53.04L17.58-53.04Q11.13-53.04 10.09-50.65ZM87.57-29.22L87.57-29.22L87.57-29.22Q91.31-35.88 91.31-42.64L91.31-42.64L91.31-42.64Q91.31-47.11 88.09-47.11L88.09-47.11L88.09-47.11Q85.59-47.11 82.99-42.85L82.99-42.85L82.99-42.85Q80.29-38.58 79.46-33.07L79.46-33.07L74.05 0L52.52 2.08L63.13-53.04L80.29-55.12L78.42-44.62L78.42-44.62Q83.51-55.12 94.95-55.12L94.95-55.12L94.95-55.12Q100.98-55.12 104.26-52.00L104.26-52.00L104.26-52.00Q107.54-48.88 107.54-42.48L107.54-42.48L107.54-42.48Q107.54-36.09 103.32-32.03L103.32-32.03L103.32-32.03Q99.11-27.98 91.94-27.98L91.94-27.98L91.94-27.98Q88.82-27.98 87.57-29.22ZM151.32-17.58L151.32-17.58L151.32-17.58Q153.92-15.81 153.92-11.91L153.92-11.91L153.92-11.91Q153.92-8.01 151.94-5.51L151.94-5.51L151.94-5.51Q149.97-3.02 146.74-1.35L146.74-1.35L146.74-1.35Q140.09 2.08 132.91 2.08L132.91 2.08L132.91 2.08Q125.74 2.08 121.52 0.52L121.52 0.52L121.52 0.52Q117.31-1.04 114.50-3.95L114.50-3.95L114.50-3.95Q108.99-9.46 108.99-19.55L108.99-19.55L108.99-19.55Q108.99-35.26 117.52-44.82L117.52-44.82L117.52-44.82Q126.67-55.12 142.58-55.12L142.58-55.12L142.58-55.12Q152.46-55.12 157.35-50.96L157.35-50.96L157.35-50.96Q160.99-47.84 160.99-42.74L160.99-42.74L160.99-42.74Q160.99-24.44 129.38-24.44L129.38-24.44L129.38-24.44Q128.96-21.74 128.96-19.45L128.96-19.45L128.96-19.45Q128.96-14.66 131.09-12.84L131.09-12.84L131.09-12.84Q133.22-11.02 137.18-11.02L137.18-11.02L137.18-11.02Q141.13-11.02 145.34-12.84L145.34-12.84L145.34-12.84Q149.55-14.66 151.32-17.58ZM130.10-28.91L130.10-28.91L130.10-28.91Q137.49-28.91 141.75-33.49L141.75-33.49L141.75-33.49Q146.02-37.86 146.02-44.82L146.02-44.82L146.02-44.82Q146.02-47.22 145.13-48.52L145.13-48.52L145.13-48.52Q144.25-49.82 142.48-49.82L142.48-49.82L142.48-49.82Q140.71-49.82 139.20-49.14L139.20-49.14L139.20-49.14Q137.70-48.46 136.14-46.18L136.14-46.18L136.14-46.18Q132.29-40.98 130.10-28.91ZM202.28-51.27L202.28-51.27L202.28-51.27Q205.71-55.12 211.64-55.12L211.64-55.12L211.64-55.12Q215.28-55.12 218.09-53.14L218.09-53.14L218.09-53.14Q220.90-51.17 220.90-47.48L220.90-47.48L220.90-47.48Q220.90-43.78 219.75-39.83L219.75-39.83L219.75-39.83Q218.61-35.88 216.84-31.82L216.84-31.82L216.84-31.82Q213.30-23.92 208.42-17.37L208.42-17.37L208.42-17.37Q201.55-7.90 194.95-2.91L194.95-2.91L194.95-2.91Q188.34 2.08 181.17 2.08L181.17 2.08L181.17 2.08Q175.34 2.08 171.81 0.73L171.81 0.73L171.81 0.73Q171.18-21.11 170.40-28.91L170.40-28.91L170.40-28.91Q169.62-36.71 169.00-40.98L169.00-40.98L169.00-40.98Q167.96-49.30 164.84-51.27L164.84-51.27L164.84-51.27Q167.23-53.35 169.57-54.24L169.57-54.24L169.57-54.24Q171.91-55.12 176.75-55.12L176.75-55.12L176.75-55.12Q181.58-55.12 185.02-51.32L185.02-51.32L185.02-51.32Q188.45-47.53 189.12-40.82L189.12-40.82L189.12-40.82Q189.80-34.11 189.80-26.00L189.80-26.00L189.80-26.00Q189.80-17.89 189.18-8.11L189.18-8.11L189.18-8.11Q192.40-10.40 195.83-17.37L195.83-17.37L195.83-17.37Q200.51-27.04 202.18-38.69L202.18-38.69L202.18-38.69Q202.70-42.22 202.70-45.97L202.70-45.97L202.70-45.97Q202.70-49.71 202.28-51.27ZM246.38 2.08L246.38 2.08L246.38 2.08Q223.50 2.08 223.50-19.45L223.50-19.45L223.50-19.45Q223.50-34.74 231.92-44.62L231.92-44.62L231.92-44.62Q240.86-55.12 256.36-55.12L256.36-55.12L256.36-55.12Q267.59-55.12 273.31-49.92L273.31-49.92L273.31-49.92Q279.03-44.72 279.03-33.80L279.03-33.80L279.03-33.80Q279.03-17.16 270.09-7.49L270.09-7.49L270.09-7.49Q261.35 2.08 246.38 2.08ZM249.08-43.16L249.08-43.16L249.08-43.16Q247.83-40.35 246.84-36.14L246.84-36.14L246.84-36.14Q245.86-31.93 244.61-25.27L244.61-25.27L244.61-25.27Q243.36-18.62 243.36-10.40L243.36-10.40L243.36-10.40Q243.36-7.70 244.24-5.93L244.24-5.93L244.24-5.93Q245.13-4.16 247.52-4.16L247.52-4.16L247.52-4.16Q249.91-4.16 251.42-5.30L251.42-5.30L251.42-5.30Q252.93-6.45 254.07-9.15L254.07-9.15L254.07-9.15Q256.15-13.94 257.82-22.83L257.82-22.83L257.82-22.83Q259.48-31.72 259.64-35.57L259.64-35.57L259.64-35.57Q259.79-39.42 259.79-42.28L259.79-42.28L259.79-42.28Q259.79-45.14 258.96-47.01L258.96-47.01L258.96-47.01Q258.13-48.88 255.79-48.88L255.79-48.88L255.79-48.88Q253.45-48.88 251.89-47.42L251.89-47.42L251.89-47.42Q250.33-45.97 249.08-43.16ZM317.72-29.22L317.72-29.22L317.72-29.22Q321.46-35.88 321.46-42.64L321.46-42.64L321.46-42.64Q321.46-47.11 318.24-47.11L318.24-47.11L318.24-47.11Q315.74-47.11 313.14-42.85L313.14-42.85L313.14-42.85Q310.44-38.58 309.61-33.07L309.61-33.07L304.20 0L282.67 2.08L293.28-53.04L310.44-55.12L308.57-44.62L308.57-44.62Q313.66-55.12 325.10-55.12L325.10-55.12L325.10-55.12Q331.14-55.12 334.41-52.00L334.41-52.00L334.41-52.00Q337.69-48.88 337.69-42.48L337.69-42.48L337.69-42.48Q337.69-36.09 333.48-32.03L333.48-32.03L333.48-32.03Q329.26-27.98 322.09-27.98L322.09-27.98L322.09-27.98Q318.97-27.98 317.72-29.22ZM401.34-48.05L401.34-48.05L401.34-48.05Q402.90-51.17 402.90-54.08L402.90-54.08L402.90-54.08Q402.90-56.99 402.58-58.60L402.58-58.60L402.58-58.60Q402.27-60.22 401.54-61.46L401.54-61.46L401.54-61.46Q399.98-64.17 396.86-64.17L396.86-64.17L396.86-64.17Q393.02-64.17 389.90-61.36L389.90-61.36L389.90-61.36Q386.57-58.45 386.57-53.87L386.57-53.87L386.57-53.87Q386.57-50.96 388.60-48.72L388.60-48.72L388.60-48.72Q390.62-46.49 393.74-44.41L393.74-44.41L393.74-44.41Q396.86-42.33 400.40-40.25L400.40-40.25L400.40-40.25Q403.94-38.17 407.06-35.67L407.06-35.67L407.06-35.67Q414.23-29.95 414.23-22.26L414.23-22.26L414.23-22.26Q414.23-17.06 411.48-12.64L411.48-12.64L411.48-12.64Q408.72-8.22 404.14-4.99L404.14-4.99L404.14-4.99Q394.16 2.08 380.95 2.08L380.95 2.08L380.95 2.08Q370.24 2.08 364.73-1.40L364.73-1.40L364.73-1.40Q359.22-4.89 359.22-10.19L359.22-10.19L359.22-10.19Q359.22-19.66 366.60-22.05L366.60-22.05L366.60-22.05Q368.68-22.78 371.85-22.78L371.85-22.78L371.85-22.78Q375.02-22.78 378.66-21.42L378.66-21.42L378.66-21.42Q377.00-17.16 377.00-13.31L377.00-13.31L377.00-13.31Q377.00-4.99 382.93-4.99L382.93-4.99L382.93-4.99Q386.78-4.99 389.95-7.80L389.95-7.80L389.95-7.80Q393.12-10.61 393.12-13.78L393.12-13.78L393.12-13.78Q393.12-16.95 391.09-19.24L391.09-19.24L391.09-19.24Q389.06-21.53 386.05-23.35L386.05-23.35L386.05-23.35Q383.03-25.17 379.55-26.94L379.55-26.94L379.55-26.94Q376.06-28.70 373.05-31.20L373.05-31.20L373.05-31.20Q365.98-36.92 365.98-46.07L365.98-46.07L365.98-46.07Q365.98-52.00 368.89-56.63L368.89-56.63L368.89-56.63Q371.80-61.26 376.48-64.38L376.48-64.38L376.48-64.38Q385.84-70.72 397.33-70.72L397.33-70.72L397.33-70.72Q408.82-70.72 414.39-67.29L414.39-67.29L414.39-67.29Q419.95-63.86 419.95-58.03L419.95-58.03L419.95-58.03Q419.95-52.94 416.00-49.71L416.00-49.71L416.00-49.71Q412.57-47.01 408.41-47.01L408.41-47.01L408.41-47.01Q404.25-47.01 401.34-48.05ZM426.66-3.12L426.66-3.12L426.66-3.12Q424.22-5.82 423.12-10.09L423.12-10.09L423.12-10.09Q422.03-14.35 422.03-21.32L422.03-21.32L422.03-21.32Q422.03-28.29 424.42-34.63L424.42-34.63L424.42-34.63Q426.82-40.98 431.18-45.55L431.18-45.55L431.18-45.55Q440.13-55.12 454.90-55.12L454.90-55.12L454.90-55.12Q460.20-55.12 464.05-53.35L464.05-53.35L481.83-55.12L474.14-14.56L474.14-14.56Q473.82-13.31 473.82-11.02L473.82-11.02L473.82-11.02Q473.82-8.74 475.23-7.28L475.23-7.28L475.23-7.28Q476.63-5.82 478.71-5.62L478.71-5.62L478.71-5.62Q477.67-2.08 473.88 0L473.88 0L473.88 0Q470.08 2.08 465.82 2.08L465.82 2.08L465.82 2.08Q461.55 2.08 458.69 0.47L458.69 0.47L458.69 0.47Q455.83-1.14 455.00-3.85L455.00-3.85L455.00-3.85Q453.34-1.25 449.80 0.42L449.80 0.42L449.80 0.42Q446.26 2.08 441.53 2.08L441.53 2.08L441.53 2.08Q436.80 2.08 432.95 0.83L432.95 0.83L432.95 0.83Q429.10-0.42 426.66-3.12ZM448.60-45.34L448.60-45.34L448.60-45.34Q447.41-43.47 446.37-40.30L446.37-40.30L446.37-40.30Q445.33-37.13 443.61-28.65L443.61-28.65L443.61-28.65Q441.90-20.18 441.90-14.14L441.90-14.14L441.90-14.14Q441.90-8.11 442.83-6.34L442.83-6.34L442.83-6.34Q443.77-4.58 445.43-4.58L445.43-4.58L445.43-4.58Q448.76-4.58 451.20-7.75L451.20-7.75L451.20-7.75Q453.65-10.92 454.58-16.54L454.58-16.54L460.10-47.01L460.10-47.01Q457.91-48.88 455.36-48.88L455.36-48.88L455.36-48.88Q452.82-48.88 451.31-48.05L451.31-48.05L451.31-48.05Q449.80-47.22 448.60-45.34ZM512.41-5.72L512.41-5.72L512.41-5.72Q509.18 2.08 498.89 2.08L498.89 2.08L498.89 2.08Q493.58 2.08 490.26-1.56L490.26-1.56L490.26-1.56Q487.45-4.78 487.45-8.01L487.45-8.01L487.45-8.01Q487.45-16.43 491.30-32.86L491.30-32.86L495.14-53.04L516.26-55.12L509.91-22.26L509.91-22.26Q508.14-14.56 508.14-11.86L508.14-11.86L508.14-11.86Q508.14-5.93 512.41-5.72ZM497.02-67.50L497.02-67.50L497.02-67.50Q497.02-71.55 500.40-73.74L500.40-73.74L500.40-73.74Q503.78-75.92 508.66-75.92L508.66-75.92L508.66-75.92Q513.55-75.92 516.52-73.74L516.52-73.74L516.52-73.74Q519.48-71.55 519.48-67.50L519.48-67.50L519.48-67.50Q519.48-63.44 516.20-61.36L516.20-61.36L516.20-61.36Q512.93-59.28 508.04-59.28L508.04-59.28L508.04-59.28Q503.15-59.28 500.08-61.36L500.08-61.36L500.08-61.36Q497.02-63.44 497.02-67.50ZM528.63-43.47L528.63-43.47L528.63-43.47Q532.17-48.46 537.52-51.79L537.52-51.79L537.52-51.79Q542.88-55.12 549.43-55.12L549.43-55.12L549.43-55.12Q555.98-55.12 559.10-53.04L559.10-53.04L579.49-55.12L572.42-15.18L572.42-15.18Q568.78 5.20 561.08 13.21L561.08 13.21L561.08 13.21Q553.70 20.80 539.34 20.80L539.34 20.80L539.34 20.80Q528.42 20.80 522.18 17.37L522.18 17.37L522.18 17.37Q515.94 13.94 515.94 8.22L515.94 8.22L515.94 8.22Q515.94 3.95 519.17 1.51L519.17 1.51L519.17 1.51Q522.39-0.94 527.38-0.94L527.38-0.94L527.38-0.94Q531.75-0.94 535.08 1.04L535.08 1.04L535.08 1.04Q537.06 2.08 537.99 3.54L537.99 3.54L537.99 3.54Q535.60 5.62 535.60 9.05L535.60 9.05L535.60 9.05Q535.60 13.52 539.76 13.52L539.76 13.52L539.76 13.52Q546.73 13.52 550.68-2.91L550.68-2.91L550.68-2.91Q551.82-7.38 552.76-11.86L552.76-11.86L552.76-11.86Q548.08-6.14 537.47-6.14L537.47-6.14L537.47-6.14Q530.09-6.14 525.82-9.67L525.82-9.67L525.82-9.67Q521.56-13.21 521.56-21.53L521.56-21.53L521.56-21.53Q521.56-26.73 523.33-32.60L523.33-32.60L523.33-32.60Q525.10-38.48 528.63-43.47ZM542.15-21.22L542.15-21.22L542.15-21.22Q542.15-14.14 545.79-14.14L545.79-14.14L545.79-14.14Q548.29-14.14 550.68-16.85L550.68-16.85L550.68-16.85Q552.55-19.03 553.28-22.26L553.28-22.26L558.58-48.98L558.58-48.98Q558.06-49.09 557.54-49.30L557.54-49.30L557.54-49.30Q556.50-49.71 555.15-49.71L555.15-49.71L555.15-49.71Q548.81-49.71 545.06-39.31L545.06-39.31L545.06-39.31Q542.15-31.20 542.15-21.22ZM635.86-11.54L635.86-11.54L635.86-11.54Q635.86-6.97 640.54-5.62L640.54-5.62L640.54-5.62Q639.39-1.77 634.92 0.31L634.92 0.31L634.92 0.31Q631.18 2.08 627.07 2.08L627.07 2.08L627.07 2.08Q622.96 2.08 620.83 0.99L620.83 0.99L620.83 0.99Q618.70-0.10 617.55-1.87L617.55-1.87L617.55-1.87Q615.68-4.58 615.68-9.67L615.68-9.67L615.68-9.67Q615.68-12.69 617.34-21.01L617.34-21.01L618.80-28.91L618.80-28.91Q620.57-37.96 620.57-41.29L620.57-41.29L620.57-41.29Q620.57-47.11 617.34-47.11L617.34-47.11L617.34-47.11Q613.29-47.11 610.69-41.18L610.69-41.18L610.69-41.18Q609.65-38.90 608.92-35.46L608.92-35.46L601.85 0L580.94 2.08L595.61-72.80L616.51-74.88L615.68-70.72L615.68-70.72Q612.77-54.70 610.27-49.30L610.27-49.30L610.27-49.30Q616.10-55.12 626.81-55.12L626.81-55.12L626.81-55.12Q638.14-55.12 640.22-47.63L640.22-47.63L640.22-47.63Q640.95-45.24 640.95-43.16L640.95-43.16L640.95-43.16Q640.95-41.08 640.80-39.47L640.80-39.47L640.80-39.47Q640.64-37.86 640.12-34.94L640.12-34.94L638.77-27.46L636.38-15.70L636.38-15.70Q635.86-13.31 635.86-11.54ZM723.84 2.08L723.84 2.08L723.84 2.08Q711.26 2.08 711.26-7.70L711.26-7.70L711.26-7.70Q711.26-11.96 713.08-20.23L713.08-20.23L713.08-20.23Q714.90-28.50 715.52-31.82L715.52-31.82L715.52-31.82Q716.98-39.42 716.98-41.81L716.98-41.81L716.98-41.81Q716.98-47.11 713.02-47.11L713.02-47.11L713.02-47.11Q710.42-47.11 707.93-43.52L707.93-43.52L707.93-43.52Q705.43-39.94 704.29-32.76L704.29-32.76L697.84 0L677.56 2.08L683.18-26.21L683.18-26.21Q684.11-30.89 684.94-36.19L684.94-36.19L684.94-36.19Q685.78-41.50 685.78-42.33L685.78-42.33L685.78-42.33Q685.78-47.11 682.24-47.11L682.24-47.11L682.24-47.11Q679.85-47.11 677.25-43.58L677.25-43.58L677.25-43.58Q674.65-40.04 673.19-32.76L673.19-32.76L666.85 0L646.36 2.08L657.28-53.04L674.23-55.12L672.46-44.62L672.46-44.62Q675.17-50.23 680.16-52.68L680.16-52.68L680.16-52.68Q685.15-55.12 692.95-55.12L692.95-55.12L692.95-55.12Q697.42-55.12 700.34-52.94L700.34-52.94L700.34-52.94Q703.25-50.75 704.18-47.22L704.18-47.22L704.18-47.22Q705.95-50.86 710.48-52.99L710.48-52.99L710.48-52.99Q715.00-55.12 720.56-55.12L720.56-55.12L720.56-55.12Q726.13-55.12 728.88-53.92L728.88-53.92L728.88-53.92Q731.64-52.73 733.30-50.75L733.30-50.75L733.30-50.75Q736.11-47.11 736.11-40.46L736.11-40.46L736.11-40.46Q736.11-33.90 733.30-20.28L733.30-20.28L733.30-20.28Q731.85-13.62 731.85-11.18L731.85-11.18L731.85-11.18Q731.85-8.74 733.25-7.28L733.25-7.28L733.25-7.28Q734.66-5.82 736.74-5.62L736.74-5.62L736.74-5.62Q735.70-2.08 732.11 0L732.11 0L732.11 0Q728.52 2.08 723.84 2.08ZM749.27-3.12L749.27-3.12L749.27-3.12Q746.82-5.82 745.73-10.09L745.73-10.09L745.73-10.09Q744.64-14.35 744.64-21.32L744.64-21.32L744.64-21.32Q744.64-28.29 747.03-34.63L747.03-34.63L747.03-34.63Q749.42-40.98 753.79-45.55L753.79-45.55L753.79-45.55Q762.74-55.12 777.50-55.12L777.50-55.12L777.50-55.12Q782.81-55.12 786.66-53.35L786.66-53.35L804.44-55.12L796.74-14.56L796.74-14.56Q796.43-13.31 796.43-11.02L796.43-11.02L796.43-11.02Q796.43-8.74 797.84-7.28L797.84-7.28L797.84-7.28Q799.24-5.82 801.32-5.62L801.32-5.62L801.32-5.62Q800.28-2.08 796.48 0L796.48 0L796.48 0Q792.69 2.08 788.42 2.08L788.42 2.08L788.42 2.08Q784.16 2.08 781.30 0.47L781.30 0.47L781.30 0.47Q778.44-1.14 777.61-3.85L777.61-3.85L777.61-3.85Q775.94-1.25 772.41 0.42L772.41 0.42L772.41 0.42Q768.87 2.08 764.14 2.08L764.14 2.08L764.14 2.08Q759.41 2.08 755.56 0.83L755.56 0.83L755.56 0.83Q751.71-0.42 749.27-3.12ZM771.21-45.34L771.21-45.34L771.21-45.34Q770.02-43.47 768.98-40.30L768.98-40.30L768.98-40.30Q767.94-37.13 766.22-28.65L766.22-28.65L766.22-28.65Q764.50-20.18 764.50-14.14L764.50-14.14L764.50-14.14Q764.50-8.11 765.44-6.34L765.44-6.34L765.44-6.34Q766.38-4.58 768.04-4.58L768.04-4.58L768.04-4.58Q771.37-4.58 773.81-7.75L773.81-7.75L773.81-7.75Q776.26-10.92 777.19-16.54L777.19-16.54L782.70-47.01L782.70-47.01Q780.52-48.88 777.97-48.88L777.97-48.88L777.97-48.88Q775.42-48.88 773.92-48.05L773.92-48.05L773.92-48.05Q772.41-47.22 771.21-45.34ZM854.05 2.08L854.05 2.08L854.05 2.08Q841.46 2.08 841.46-7.70L841.46-7.70L841.46-7.70Q841.57-10.40 842.40-14.98L842.40-14.98L844.27-24.54L844.27-24.54Q847.08-38.06 847.08-41.08L847.08-41.08L847.08-41.08Q847.08-47.11 843.54-47.11L843.54-47.11L843.54-47.11Q837.62-47.11 834.50-31.62L834.50-31.62L828.36 0L807.46 2.08L818.27-53.14L835.33-55.12L833.66-44.93L833.66-44.93Q838.55-55.12 853.53-55.12L853.53-55.12L853.53-55.12Q860.81-55.12 863.88-52.05L863.88-52.05L863.88-52.05Q866.94-48.98 866.94-42.12L866.94-42.12L866.94-42.12Q866.94-35.67 863.62-20.59L863.62-20.59L863.62-20.59Q862.06-13.83 862.06-11.28L862.06-11.28L862.06-11.28Q862.06-8.74 863.46-7.28L863.46-7.28L863.46-7.28Q864.86-5.82 866.94-5.62L866.94-5.62L866.94-5.62Q865.90-2.08 862.32 0L862.32 0L862.32 0Q858.73 2.08 854.05 2.08Z" fill="#ffffff"></path></g></g><style>text {
  font-size: 64px;
  font-family: Arial Black;
  dominant-baseline: central;
  text-anchor: middle;
}</style></svg>